<?xml version="1.0" encoding="UTF-8"?>
<svg id="Layer_1" data-name="Layer 1" xmlns="http://www.w3.org/2000/svg" viewBox="0 0 698.99 211.74">
  <defs>
    <style>
      .cls-1 {
        fill: #fff;
      }
    </style>
  </defs>
  <g>
    <path class="cls-1" d="M695.99,192.61c-1.37-3.02-3-6.21-4.32-8.77-.99-1.93-1.94-3.75-2.29-4.62-6.38-15.57-12.79-31.15-19.21-46.72-4.1-9.94-8.48-20.03-12.71-29.79-11.35-26.16-23.1-53.21-30.96-80.71-.35-1.16-.96-3.92-1.56-6.6-1.76-7.9-2.43-10.56-3.32-11.87-1.54-2.22-4.6-2.11-9.67-1.91-1.32.05-3.3.13-3.81.05l-.5-.08c-2.95-.22-4.38,2.45-6.74,8.18-1.47,3.55-3.37,8.67-5.65,15.23-4.12,11.85-8.69,26.02-11.72,35.4-1.53,4.76-2.74,8.52-3.14,9.62-10.43,28.79-22.28,57.73-33.74,85.71-5.37,13.11-10.92,26.67-16.25,40.03l-.16.41c-1.27,3.16-3.4,8.45,1.07,12.15,1.42,1.16,3.7,1.69,5.82,1.69,1.05,0,2.05-.12,2.9-.36,2.73-.78,3.7-2.55,4.03-3.54,2.37-7.05,4.54-14.48,6.65-21.67,3.61-12.35,7.34-25.11,12.24-36.59,4.16-9.78,9.02-15.66,14.84-17.99,8.77-3.51,19.79,1.21,31.46,6.22,4.84,2.07,9.85,4.22,14.98,5.92,11.15,3.7,19.33,3.62,25-.23,2.63-1.79,4.6-4.33,5.89-7.6,3.46,7.62,6.96,17.51,9.91,25.81.93,2.61,1.8,5.06,2.6,7.27,2.51,6.91,4.73,13.92,6.92,20.94,1.16,3.73,2.31,7.46,3.48,11.18.93,2.94.85,7.26,3.64,9.09,4.41,2.89,14.79,1.47,16.9-3.8.27-.67.41-1.4.41-2.26,0-2.22-.95-5.24-3-9.78ZM646.59,128.11c-.88.84-2.5,1.58-5.48,1.58-2.43,0-5.75-.49-10.31-1.81-5.08-1.48-10.18-3.73-15.11-5.91-8.49-3.75-17.13-7.58-25.88-7.58-5.1,0-10.23,1.31-15.38,4.68,10.82-26.84,21.16-54.22,31.19-80.78,2.03-5.38,4.06-10.75,6.09-16.12.14.62.27,1.22.37,1.76.53,2.56,1.05,4.97,1.51,6.52,5.57,18.48,13.31,36.75,20.81,54.43,4.43,10.46,9.02,21.28,13.05,31.92.91,4,1.46,9.12-.87,11.32Z"/>
    <path class="cls-1" d="M167.38,192.61c-1.37-3.02-3-6.21-4.32-8.77-.99-1.93-1.94-3.75-2.29-4.62-6.38-15.57-12.79-31.15-19.21-46.72-4.1-9.94-8.48-20.03-12.71-29.79-11.35-26.16-23.1-53.21-30.96-80.71-.35-1.16-.96-3.92-1.56-6.6-1.76-7.9-2.43-10.56-3.32-11.87-1.54-2.22-4.6-2.11-9.67-1.91-1.32.05-3.3.13-3.81.05l-.5-.08c-2.95-.22-4.38,2.45-6.74,8.18-1.47,3.55-3.37,8.67-5.65,15.23-4.12,11.85-8.69,26.02-11.72,35.4-1.53,4.76-2.74,8.52-3.14,9.62-10.43,28.79-22.28,57.73-33.74,85.71-5.37,13.11-10.92,26.67-16.25,40.03l-.16.41c-1.27,3.16-3.4,8.45,1.07,12.15,1.42,1.16,3.7,1.69,5.82,1.69,1.05,0,2.05-.12,2.9-.36,2.73-.78,3.7-2.55,4.03-3.54,2.37-7.05,4.54-14.48,6.65-21.67,3.61-12.35,7.34-25.11,12.24-36.59,4.16-9.78,9.02-15.66,14.84-17.99,8.77-3.51,19.79,1.21,31.46,6.22,4.84,2.07,9.85,4.22,14.98,5.92,11.15,3.7,19.33,3.62,25-.23,2.63-1.79,4.6-4.33,5.89-7.6,3.46,7.62,6.96,17.51,9.91,25.81.93,2.61,1.8,5.06,2.6,7.27,2.51,6.91,4.73,13.92,6.92,20.94,1.16,3.73,2.31,7.46,3.48,11.18.93,2.94.85,7.26,3.64,9.09,4.41,2.89,14.79,1.47,16.9-3.8.27-.67.41-1.4.41-2.26,0-2.22-.95-5.24-3-9.78ZM117.98,128.11c-.88.84-2.5,1.58-5.48,1.58-2.43,0-5.75-.49-10.31-1.81-5.08-1.48-10.18-3.73-15.11-5.91-8.49-3.75-17.13-7.58-25.88-7.58-5.1,0-10.23,1.31-15.38,4.68,10.82-26.84,21.16-54.22,31.19-80.78,2.03-5.38,4.06-10.75,6.09-16.12.14.62.27,1.22.37,1.76.53,2.56,1.05,4.97,1.51,6.52,5.57,18.48,13.31,36.75,20.81,54.43,4.43,10.46,9.02,21.28,13.05,31.92.91,4,1.46,9.12-.87,11.32Z"/>
    <g>
      <g>
        <path class="cls-1" d="M341.64,18.73c-.1.48-.41,1.4-.67,2.17-.06.14-.11.29-.15.44-.26-.14-.51-.3-.75-.44-7.4-4.28-14.95-8.65-23.09-11.72,7.56,1.72,14.71,4.22,20.89,7.33,2.48,1.25,3.42,1.89,3.77,2.22Z"/>
        <path class="cls-1" d="M349.95,185.59c-10.74,14.93-28.54,24.64-47.62,25.97-1.66.11-3.36.17-5.09.17-21.53,0-47.04-8.85-62.51-22.02-6.55-5.58-6.68-7.88-3.75-14.08.3-.63.63-1.33.99-2.13.1-.77.4-2.21,1.87-3.07.79-.47,2.11-.86,3.91-.09,1.74.74,3.77,2.72,6.91,5.89,1.29,1.3,2.62,2.64,3.35,3.21,19.47,15.24,49.64,26.79,75.9,13.53,11.45-5.79,19.34-16.26,21.67-28.74,2.26-12.15-1.24-24.43-9.6-33.67-8.89-9.82-24.93-17.3-41.92-25.23-27.36-12.76-55.64-25.95-58.18-51.42-1.88-18.85,4.38-33.8,18.09-43.22,23.1-15.87,62.32-12.54,86.9-.16,7.43,3.74,8.62,6.08,6.42,12.52-.4,1.15-.84,2.45-1.28,4.11l-1.1,4.21-3.79-2.16c-1.46-.84-2.93-1.69-4.41-2.54-10.62-6.14-21.59-12.49-33.66-14.38-17.89-2.8-35.62,1.36-45.17,10.58-6.59,6.37-9.29,14.9-8.03,25.35,2.38,19.67,24.75,29.88,48.43,40.68,26.15,11.94,53.2,24.28,60.16,51.07,4.16,16.02,1.15,32.22-8.5,45.61Z"/>
      </g>
      <polygon class="cls-1" points="205.68 177.76 208.38 209.24 187.69 209.24 190.39 177.77 190.38 32.73 187.68 2.04 208.38 2.04 205.67 33.51 205.68 177.76"/>
    </g>
  </g>
  <g>
    <g>
      <polygon class="cls-1" points="396.85 179.57 399.6 211.74 378.46 211.74 381.23 179.58 381.22 31.36 378.45 0 399.6 0 396.84 32.16 396.85 179.57"/>
      <polygon class="cls-1" points="513.21 179.57 515.96 211.74 494.82 211.74 497.59 179.58 497.58 31.36 494.81 0 515.96 0 513.2 32.16 513.21 179.57"/>
    </g>
    <g>
      <path class="cls-1" d="M494.45,92.82c-6.93,6.89-18.2,6.42-27.71,4.22-12.19-2.81-23.93-7.66-36.36-9.05-3.42-.39-6.96-.45-10.45-.15-9.07.82-17.84,4.2-23.48,11.14v12.29c-.27.66-.52,1.36-.75,2.08h0s.03,0,.05-.03c0-.02.02-.03.04-.04t.02-.02c.06-.05.13-.1.19-.15l.05-.05s.08-.06.12-.1l.12-.12c.06-.06.12-.13.18-.2v13.14c1.02-8.1,2.87-14.92,6.04-18.56,4.21-4.81,10.4-6.17,17.44-5.73,7.92.46,16.91,3.18,25.3,5.73,5.7,1.73,11.1,3.37,15.77,4.15,13.67,2.29,26.82.08,37.85-7.9v-17.56c-1.02,2.57-2.43,4.94-4.4,6.89Z"/>
      <path class="cls-1" d="M477.98,105.72c.48-.05.94-.1,1.4-.16h.09c-.48.07-.98.12-1.48.16Z"/>
    </g>
  </g>
</svg>